<svg xmlns="http://www.w3.org/2000/svg" width="231.959" height="28.489" viewBox="0 0 231.959 28.489">
  <g id="logo-01" transform="translate(-331.874 -335.504)">
    <path id="Path_52" data-name="Path 52" d="M746.966,339.042h5.311a.5.5,0,0,1,.49.569l-3.256,21.872a.5.5,0,0,1-.49.422h-5.311a.5.5,0,0,1-.49-.569l3.256-21.872A.5.5,0,0,1,746.966,339.042Z" transform="translate(-309.429 -2.661)" fill="#f90"/>
    <path id="Path_53" data-name="Path 53" d="M331.874,347.132c0-6.312,5.593-11.611,12.233-11.611a12.491,12.491,0,0,1,8.751,3.573.5.5,0,0,1-.02.73l-3.9,3.41a.5.5,0,0,1-.7-.046,5.619,5.619,0,0,0-4.133-1.909,5.874,5.874,0,0,0,0,11.742,5.656,5.656,0,0,0,4.165-1.917.5.5,0,0,1,.693-.043l3.875,3.384a.5.5,0,0,1,.022.728,12.4,12.4,0,0,1-8.755,3.605C337.467,358.776,331.874,353.445,331.874,347.132Z" transform="translate(0 -0.013)" fill="#221f1f"/>
    <path id="Path_54" data-name="Path 54" d="M424.155,366.8c0-4.808,4.35-8.831,9.551-8.831,5.168,0,9.518,4.023,9.518,8.831s-4.35,8.864-9.518,8.864C428.505,375.659,424.155,371.6,424.155,366.8Zm13.181,0a3.647,3.647,0,1,0-3.631,3.631A3.658,3.658,0,0,0,437.336,366.8Z" transform="translate(-69.418 -16.896)" fill="#221f1f"/>
    <path id="Path_55" data-name="Path 55" d="M528.59,364.506v10.265a.5.5,0,0,1-.5.5h-5.027a.5.5,0,0,1-.5-.5v-8.793a2.557,2.557,0,0,0-2.551-2.781,2.418,2.418,0,0,0-2.421,2.584v8.99a.5.5,0,0,1-.5.5h-5.321a.5.5,0,0,1-.5-.5V358.852a.5.5,0,0,1,.5-.5H517.1a.5.5,0,0,1,.5.5v1.205a5.976,5.976,0,0,1,4.775-2.093C526.006,357.964,528.59,360.679,528.59,364.506Z" transform="translate(-134.963 -16.896)" fill="#221f1f"/>
    <path id="Path_56" data-name="Path 56" d="M589.657,372.719l1.849-3a.493.493,0,0,1,.682-.16,11.364,11.364,0,0,0,5.44,1.721c1.178,0,1.6-.295,1.6-.851,0-.588-.981-.915-2.551-1.243-3.075-.654-6.509-1.407-6.509-5.4,0-3.271,2.649-5.822,7.065-5.822a13.012,13.012,0,0,1,6.662,1.968.5.5,0,0,1,.178.664l-1.649,2.994a.5.5,0,0,1-.689.185,9.6,9.6,0,0,0-4.5-1.526c-.883,0-1.472.458-1.472.948,0,.556.752.654,2.453,1.047,3.075.687,6.607,1.7,6.607,5.691,0,3.5-2.78,5.724-7.36,5.724a13.785,13.785,0,0,1-7.665-2.27A.5.5,0,0,1,589.657,372.719Z" transform="translate(-193.861 -16.896)" fill="#221f1f"/>
    <path id="Path_57" data-name="Path 57" d="M657.829,366.8c0-4.808,4.35-8.831,9.551-8.831,5.168,0,9.518,4.023,9.518,8.831s-4.35,8.864-9.518,8.864C662.179,375.659,657.829,371.6,657.829,366.8Zm13.181,0a3.647,3.647,0,1,0-3.631,3.631A3.658,3.658,0,0,0,671.01,366.8Z" transform="translate(-245.199 -16.896)" fill="#221f1f"/>
    <path id="Path_58" data-name="Path 58" d="M743.561,335.521h5.311a.5.5,0,0,1,.49.569L746.1,357.961a.5.5,0,0,1-.49.422H740.3a.5.5,0,0,1-.49-.569l3.256-21.872A.5.5,0,0,1,743.561,335.521Z" transform="translate(-306.868 -0.013)" fill="#221f1f"/>
    <path id="Path_59" data-name="Path 59" d="M794.787,369.847l2.805,2.832a.493.493,0,0,1-.023.72,10.813,10.813,0,0,1-6.584,2.26c-5.4,0-9.191-3.7-9.191-8.9,0-5.168,3.7-8.8,8.929-8.8,5.285,0,8.462,3.626,8.628,9.821a.5.5,0,0,1-.5.515H787.387a3.471,3.471,0,0,0,3.336,2.649,6.138,6.138,0,0,0,3.43-1.16A.494.494,0,0,1,794.787,369.847Zm-7.3-4.851h6.149a3.078,3.078,0,0,0-2.911-2.322A3.439,3.439,0,0,0,787.485,365Z" transform="translate(-338.451 -16.896)" fill="#221f1f"/>
    <path id="Path_60" data-name="Path 60" d="M1240.952,407.888h5.31a.5.5,0,0,1,.49.57l-.735,4.815a.5.5,0,0,1-.49.421h-5.31a.5.5,0,0,1-.49-.57l.736-4.815A.5.5,0,0,1,1240.952,407.888Z" transform="translate(-682.925 -54.451)" fill="#f90"/>
    <path id="Path_61" data-name="Path 61" d="M1238.262,404.368h5.31a.5.5,0,0,1,.49.57l-.736,4.815a.5.5,0,0,1-.49.421h-5.31a.5.5,0,0,1-.49-.57l.736-4.815A.5.5,0,0,1,1238.262,404.368Z" transform="translate(-680.901 -51.803)" fill="#221f1f"/>
    <path id="Path_62" data-name="Path 62" d="M859.914,354.589l2.914-3.48a.5.5,0,0,1,.68-.076,11.71,11.71,0,0,0,7.048,2.461c1.734,0,2.649-.589,2.649-1.57,0-1.079-.785-1.243-3.892-1.962-4.874-1.112-8.635-2.388-8.635-7.065,0-4.481,3.532-7.392,8.864-7.392a14.53,14.53,0,0,1,9.045,2.751.492.492,0,0,1,.1.678l-2.611,3.688a.5.5,0,0,1-.682.133,11.069,11.069,0,0,0-6.016-1.984c-1.537,0-2.29.621-2.29,1.472,0,1.145.785,1.5,3.99,2.191,5.233,1.112,8.5,2.519,8.5,6.8,0,4.743-3.63,7.523-9.256,7.523a16.188,16.188,0,0,1-10.342-3.465A.5.5,0,0,1,859.914,354.589Z" transform="translate(-397.13 0)" fill="#f90"/>
    <path id="Path_63" data-name="Path 63" d="M969.411,366.78c0,5.2-3.205,8.864-7.752,8.864a7.069,7.069,0,0,1-5.4-2.388v7.125a.5.5,0,0,1-.5.5h-5.322a.5.5,0,0,1-.5-.5V358.837a.5.5,0,0,1,.5-.5h5.322a.5.5,0,0,1,.5.5v1.5a7.069,7.069,0,0,1,5.4-2.388C966.208,357.949,969.411,361.613,969.411,366.78Zm-6.018,0a3.523,3.523,0,0,0-3.729-3.6,3.621,3.621,0,0,0,0,7.228A3.53,3.53,0,0,0,963.393,366.78Z" transform="translate(-464.946 -16.884)" fill="#f90"/>
    <path id="Path_64" data-name="Path 64" d="M1035.77,366.78c0-4.808,4.35-8.831,9.551-8.831,5.168,0,9.518,4.023,9.518,8.831s-4.35,8.864-9.518,8.864C1040.118,375.644,1035.77,371.589,1035.77,366.78Zm13.18,0a3.647,3.647,0,1,0-3.63,3.631A3.658,3.658,0,0,0,1048.95,366.78Z" transform="translate(-529.504 -16.884)" fill="#f90"/>
    <path id="Path_65" data-name="Path 65" d="M1133.145,357.534c0-.057-.007-.116-.007-.178v-5.371h2.842a.5.5,0,0,0,.5-.5v-3.981a.5.5,0,0,0-.5-.5h-2.842v-3.629a.5.5,0,0,0-.8-.39l-5.027,3.932a.5.5,0,0,0-.19.39v11.274a5.48,5.48,0,0,0,5.726,5.726,6.866,6.866,0,0,0,4.107-1.517.5.5,0,0,0,.161-.512l-.336-1.242a.5.5,0,0,0-.545-.362C1135.313,360.8,1133.215,360.708,1133.145,357.534Z" transform="translate(-598.221 -5.553)" fill="#f90"/>
    <path id="Path_66" data-name="Path 66" d="M1172.53,373.093l2.355-3.827a11.431,11.431,0,0,0,5.854,2c1.178,0,1.6-.295,1.6-.851,0-.588-.981-.915-2.551-1.243-3.075-.654-6.509-1.407-6.509-5.4,0-3.271,2.649-5.822,7.065-5.822a13.105,13.105,0,0,1,7.065,2.224l-2.126,3.86a10.1,10.1,0,0,0-4.939-1.8c-.883,0-1.472.458-1.472.948,0,.556.752.654,2.453,1.047,3.074.687,6.607,1.7,6.607,5.691,0,3.5-2.78,5.724-7.359,5.724A13.563,13.563,0,0,1,1172.53,373.093Z" transform="translate(-632.381 -16.884)" fill="#f90"/>
  </g>
</svg>
